<svg width="29" height="26" viewBox="0 0 29 26" fill="none" xmlns="http://www.w3.org/2000/svg">
<mask id="mask0" mask-type="alpha" maskUnits="userSpaceOnUse" x="0" y="0" width="29" height="26">
<path fill-rule="evenodd" clip-rule="evenodd" d="M14.5376 5.85356H28.8305V25.8636H0.244751V0.136414H14.5376V5.85356ZM3.10332 23.005H5.96189V20.1464H3.10332V23.005ZM5.96189 17.2878H3.10332V14.4293H5.96189V17.2878ZM3.10332 11.5707H5.96189V8.71213H3.10332V11.5707ZM5.96189 5.85356H3.10332V2.99499H5.96189V5.85356ZM8.82047 23.005H11.679V20.1464H8.82047V23.005ZM11.679 17.2878H8.82047V14.4293H11.679V17.2878ZM8.82047 11.5707H11.679V8.71213H8.82047V11.5707ZM11.679 5.85356H8.82047V2.99499H11.679V5.85356ZM25.9719 23.005V8.71213H14.5376V11.5707H17.3962V14.4293H14.5376V17.2878H17.3962V20.1464H14.5376V23.005H25.9719ZM23.1133 11.5707H20.2548V14.4293H23.1133V11.5707ZM20.2548 17.2878H23.1133V20.1464H20.2548V17.2878Z" fill="white"/>
</mask>
<g mask="url(#mask0)">
<rect x="-3" y="-5" width="36" height="36" fill="white"/>
</g>
</svg>
